<svg xmlns="http://www.w3.org/2000/svg" viewBox="0 0 48 48" id="file"
width="50px" height="50px">
<defs>
  <linearGradient id="globalGradient" x1="0%" y1="0%" x2="100%" y2="100%">
    <stop offset="0%" stop-color="#c40700"/>
    <stop offset="100%" stop-color="#d4a300"/>
  </linearGradient>
</defs>

<g>
  <rect width="9.63" height="46.5" x=".75" y=".75" fill="url(#globalGradient)"></rect>
  <rect width="9.63" height="46.5" x="13.02" y=".75" fill="url(#globalGradient)"></rect>
  <polygon fill="url(#globalGradient)" points="47.25 44.35 38.2 47.16 24.64 3.47 27.06 2.72 33.69 .66 46.65 42.41 47.25 44.35"></polygon>
</g>

  <g>
    <path fill="#ffffff" d="M10.379.005H.75A.75.75,0,0,0,0,.755v46.49A.75.75,0,0,0,.75,48h9.629a.75.75,0,0,0,.75-.75V.755A.75.75,0,0,0,10.379.005ZM9.629,46.5H1.5V1.505H9.629Z"></path>
    <path fill="#ffffff" d="M5.564 38.883A2.753 2.753 0 1 0 2.812 36.13 2.757 2.757 0 0 0 5.564 38.883zm0-4.006A1.253 1.253 0 1 1 4.312 36.13 1.254 1.254 0 0 1 5.564 34.877zM3.562 28.245H7.567a.75.75 0 0 0 .75-.75V25.624a.75.75 0 0 0-1.5 0v1.121h-2.5V9.175H6.817v13.94a.75.75 0 0 0 1.5 0V8.425a.75.75 0 0 0-.75-.75H3.562a.75.75 0 0 0-.75.75V27.5A.75.75 0 0 0 3.562 28.245zM15.83 28.245h4.006a.75.75 0 0 0 .75-.75V12.805a.75.75 0 0 0-1.5 0v13.94H16.58V9.175h2.506V10.3a.75.75 0 0 0 1.5 0V8.425a.75.75 0 0 0-.75-.75H15.83a.75.75 0 0 0-.75.75V27.5A.75.75 0 0 0 15.83 28.245z"></path>
    <path fill="#ffffff" d="M22.647.005H13.019a.75.75,0,0,0-.75.75v46.49a.75.75,0,0,0,.75.75h9.628a.75.75,0,0,0,.75-.75V.755A.75.75,0,0,0,22.647.005ZM21.9,46.5H13.769V1.505H21.9Z"></path>
    <path fill="#ffffff" d="M17.833 38.883A2.753 2.753 0 1 0 15.08 36.13 2.757 2.757 0 0 0 17.833 38.883zm0-4.006A1.253 1.253 0 1 1 16.58 36.13 1.255 1.255 0 0 1 17.833 34.877zM47.966 44.13L34.4.439a.747.747 0 0 0-.938-.493L24.414 2.755a.748.748 0 0 0-.493.938L37.485 47.385a.749.749 0 0 0 .716.527.741.741 0 0 0 .223-.034l9.049-2.81A.749.749 0 0 0 47.966 44.13zM38.7 46.224L25.575 3.965 33.191 1.6 46.312 43.858z"></path>
    <path fill="#ffffff" d="M36.914 35.926a2.76 2.76 0 1 0 2.759-2.759A2.762 2.762 0 0 0 36.914 35.926zm2.759-1.259a1.259 1.259 0 1 1-1.259 1.259A1.261 1.261 0 0 1 39.673 34.667zM32.846 7.451L29.02 8.639a.747.747 0 0 0-.494.938l3.456 11.131a.75.75 0 0 0 1.432-.445L30.181 9.849l2.393-.744 5.21 16.781-2.393.743-1.23-3.96a.75.75 0 0 0-1.432.445l1.452 4.676a.747.747 0 0 0 .715.527.71.71 0 0 0 .223-.034L38.945 27.1a.747.747 0 0 0 .493-.939L33.784 7.944A.745.745 0 0 0 32.846 7.451z"></path>
  </g>
</svg>
