<?xml version="1.0" encoding="utf-8"?>

<!DOCTYPE svg PUBLIC "-//W3C//DTD SVG 1.1//EN" "http://www.w3.org/Graphics/SVG/1.1/DTD/svg11.dtd">

<!-- License: Apache. Made by vaadin: https://github.com/vaadin/vaadin-icons -->
<svg width="800px" height="800px" viewBox="0 0 16 16" version="1.1" xmlns="http://www.w3.org/2000/svg" xmlns:xlink="http://www.w3.org/1999/xlink">
  <defs>
    <linearGradient id="gradient" x1="16" x2="16" y1="0" y2="16" gradientUnits="userSpaceOnUse">
      <stop stop-color="#fcc60e"></stop>
      <stop offset="1" stop-color="#ff332c"></stop>
    </linearGradient>
  </defs>
<path fill="url(#gradient)" d="M16 0c0 0-3.5-0.4-6.7 2.8-1.6 1.5-2.9 3.5-3.9 5.3l-2.5-0.6-1.6 1.6 2.8 1.4c-0.3 0.6-0.4 1-0.4 1l0.8 0.8c0 0 0.4-0.2 1-0.4l1.4 2.8 1.6-1.6-0.5-2.5c1.7-1 3.8-2.3 5.3-3.8 3.1-3.2 2.7-6.8 2.7-6.8zM12.8 4.8c-0.4 0.4-1.1 0.4-1.6 0-0.4-0.4-0.4-1.1 0-1.6 0.4-0.4 1.1-0.4 1.6 0 0.4 0.4 0.4 1.1 0 1.6z"></path>
<path fill="url(#gradient)" d="M4 14.2c-0.8 0.8-2.6 0.4-2.6 0.4s-0.4-1.8 0.4-2.6c0.8-0.8 1.5-0.9 1.5-0.9s-1.3-0.3-2.1 0.6c-1.6 1.6-1 4.2-1 4.2s2.6 0.6 4.2-1c0.9-0.9 0.6-2.2 0.6-2.2s-0.2 0.7-1 1.5z"></path>
</svg>