<?xml version="1.0" encoding="utf-8"?>

<!-- License: CC Attribution. Made by wishforge.games: https://www.wishforge.games/ -->
<svg fill="rgba(255, 255, 255, 0.75)" height="200px" width="400px" version="1.1" id="Icons" xmlns="http://www.w3.org/2000/svg" xmlns:xlink="http://www.w3.org/1999/xlink" 
	 viewBox="0 0 512 256" xml:space="preserve">
<g transform="translate(50, 200)">
	<path d="M12,17c0.8-4.2,1.9-5.3,6.1-6.1c0.5-0.1,0.8-0.5,0.8-1s-0.3-0.9-0.8-1C13.9,8.1,12.8,7,12,2.8C11.9,2.3,11.5,2,11,2
		c-0.5,0-0.9,0.3-1,0.8C9.2,7,8.1,8.1,3.9,8.9C3.5,9,3.1,9.4,3.1,9.9s0.3,0.9,0.8,1c4.2,0.8,5.3,1.9,6.1,6.1c0.1,0.5,0.5,0.8,1,0.8
		S11.9,17.4,12,17z"/>
	<path d="M22,24c-2.8-0.6-3.4-1.2-4-4c-0.1-0.5-0.5-0.8-1-0.8s-0.9,0.3-1,0.8c-0.6,2.8-1.2,3.4-4,4c-0.5,0.1-0.8,0.5-0.8,1
		s0.3,0.9,0.8,1c2.8,0.6,3.4,1.2,4,4c0.1,0.5,0.5,0.8,1,0.8s0.9-0.3,1-0.8c0.6-2.8,1.2-3.4,4-4c0.5-0.1,0.8-0.5,0.8-1
		S22.4,24.1,22,24z"/>
	<path d="M29.2,14c-2.2-0.4-2.7-0.9-3.1-3.1c-0.1-0.5-0.5-0.8-1-0.8c-0.5,0-0.9,0.3-1,0.8c-0.4,2.2-0.9,2.7-3.1,3.1
		c-0.5,0.1-0.8,0.5-0.8,1s0.3,0.9,0.8,1c2.2,0.4,2.7,0.9,3.1,3.1c0.1,0.5,0.5,0.8,1,0.8c0.5,0,0.9-0.3,1-0.8
		c0.4-2.2,0.9-2.7,3.1-3.1c0.5-0.1,0.8-0.5,0.8-1S29.7,14.1,29.2,14z"/>
	<path d="M5.7,22.3C5.4,22,5,21.9,4.6,22.1c-0.1,0-0.2,0.1-0.3,0.2c-0.1,0.1-0.2,0.2-0.2,0.3C4,22.7,4,22.9,4,23s0,0.3,0.1,0.4
		c0.1,0.1,0.1,0.2,0.2,0.3c0.1,0.1,0.2,0.2,0.3,0.2C4.7,24,4.9,24,5,24c0.1,0,0.3,0,0.4-0.1s0.2-0.1,0.3-0.2
		c0.1-0.1,0.2-0.2,0.2-0.3C6,23.3,6,23.1,6,23s0-0.3-0.1-0.4C5.9,22.5,5.8,22.4,5.7,22.3z"/>
	<path d="M28,7c0.3,0,0.5-0.1,0.7-0.3C28.9,6.5,29,6.3,29,6s-0.1-0.5-0.3-0.7c-0.1-0.1-0.2-0.2-0.3-0.2c-0.2-0.1-0.5-0.1-0.8,0
		c-0.1,0-0.2,0.1-0.3,0.2C27.1,5.5,27,5.7,27,6c0,0.3,0.1,0.5,0.3,0.7C27.5,6.9,27.7,7,28,7z"/>
</g>
<g transform="translate(470,180)">
	<path d="M12,17c0.8-4.2,1.9-5.3,6.1-6.1c0.5-0.1,0.8-0.5,0.8-1s-0.3-0.9-0.8-1C13.9,8.1,12.8,7,12,2.8C11.9,2.3,11.5,2,11,2
		c-0.5,0-0.9,0.3-1,0.8C9.2,7,8.1,8.1,3.9,8.9C3.5,9,3.1,9.4,3.1,9.9s0.3,0.9,0.8,1c4.2,0.8,5.3,1.9,6.1,6.1c0.1,0.5,0.5,0.8,1,0.8
		S11.9,17.4,12,17z"/>
	<path d="M22,24c-2.8-0.6-3.4-1.2-4-4c-0.1-0.5-0.5-0.8-1-0.8s-0.9,0.3-1,0.8c-0.6,2.8-1.2,3.4-4,4c-0.5,0.1-0.8,0.5-0.8,1
		s0.3,0.9,0.8,1c2.8,0.6,3.4,1.2,4,4c0.1,0.5,0.5,0.8,1,0.8s0.9-0.3,1-0.8c0.6-2.8,1.2-3.4,4-4c0.5-0.1,0.8-0.5,0.8-1
		S22.4,24.1,22,24z"/>
	<path d="M29.2,14c-2.2-0.4-2.7-0.9-3.1-3.1c-0.1-0.5-0.5-0.8-1-0.8c-0.5,0-0.9,0.3-1,0.8c-0.4,2.2-0.9,2.7-3.1,3.1
		c-0.5,0.1-0.8,0.5-0.8,1s0.3,0.9,0.8,1c2.2,0.4,2.7,0.9,3.1,3.1c0.1,0.5,0.5,0.8,1,0.8c0.5,0,0.9-0.3,1-0.8
		c0.4-2.2,0.9-2.7,3.1-3.1c0.5-0.1,0.8-0.5,0.8-1S29.7,14.1,29.2,14z"/>
	<path d="M5.7,22.3C5.4,22,5,21.9,4.6,22.1c-0.1,0-0.2,0.1-0.3,0.2c-0.1,0.1-0.2,0.2-0.2,0.3C4,22.7,4,22.9,4,23s0,0.3,0.1,0.4
		c0.1,0.1,0.1,0.2,0.2,0.3c0.1,0.1,0.2,0.2,0.3,0.2C4.7,24,4.9,24,5,24c0.1,0,0.3,0,0.4-0.1s0.2-0.1,0.3-0.2
		c0.1-0.1,0.2-0.2,0.2-0.3C6,23.3,6,23.1,6,23s0-0.3-0.1-0.4C5.9,22.5,5.8,22.4,5.7,22.3z"/>
	<path d="M28,7c0.3,0,0.5-0.1,0.7-0.3C28.9,6.5,29,6.3,29,6s-0.1-0.5-0.3-0.7c-0.1-0.1-0.2-0.2-0.3-0.2c-0.2-0.1-0.5-0.1-0.8,0
		c-0.1,0-0.2,0.1-0.3,0.2C27.1,5.5,27,5.7,27,6c0,0.3,0.1,0.5,0.3,0.7C27.5,6.9,27.7,7,28,7z"/>
</g>
<g transform="translate(100,35)">
	<path d="M12,17c0.8-4.2,1.9-5.3,6.1-6.1c0.5-0.1,0.8-0.5,0.8-1s-0.3-0.9-0.8-1C13.9,8.1,12.8,7,12,2.8C11.9,2.3,11.5,2,11,2
		c-0.5,0-0.9,0.3-1,0.8C9.2,7,8.1,8.1,3.9,8.9C3.5,9,3.1,9.4,3.1,9.9s0.3,0.9,0.8,1c4.2,0.8,5.3,1.9,6.1,6.1c0.1,0.5,0.5,0.8,1,0.8
		S11.9,17.4,12,17z"/>
	<path d="M22,24c-2.8-0.6-3.4-1.2-4-4c-0.1-0.5-0.5-0.8-1-0.8s-0.9,0.3-1,0.8c-0.6,2.8-1.2,3.4-4,4c-0.5,0.1-0.8,0.5-0.8,1
		s0.3,0.9,0.8,1c2.8,0.6,3.4,1.2,4,4c0.1,0.5,0.5,0.8,1,0.8s0.9-0.3,1-0.8c0.6-2.8,1.2-3.4,4-4c0.5-0.1,0.8-0.5,0.8-1
		S22.4,24.1,22,24z"/>
	<path d="M29.2,14c-2.2-0.4-2.7-0.9-3.1-3.1c-0.1-0.5-0.5-0.8-1-0.8c-0.5,0-0.9,0.3-1,0.8c-0.4,2.2-0.9,2.7-3.1,3.1
		c-0.5,0.1-0.8,0.5-0.8,1s0.3,0.9,0.8,1c2.2,0.4,2.7,0.9,3.1,3.1c0.1,0.5,0.5,0.8,1,0.8c0.5,0,0.9-0.3,1-0.8
		c0.4-2.2,0.9-2.7,3.1-3.1c0.5-0.1,0.8-0.5,0.8-1S29.7,14.1,29.2,14z"/>
	<path d="M5.7,22.3C5.4,22,5,21.9,4.6,22.1c-0.1,0-0.2,0.1-0.3,0.2c-0.1,0.1-0.2,0.2-0.2,0.3C4,22.7,4,22.9,4,23s0,0.3,0.1,0.4
		c0.1,0.1,0.1,0.2,0.2,0.3c0.1,0.1,0.2,0.2,0.3,0.2C4.7,24,4.9,24,5,24c0.1,0,0.3,0,0.4-0.1s0.2-0.1,0.3-0.2
		c0.1-0.1,0.2-0.2,0.2-0.3C6,23.3,6,23.1,6,23s0-0.3-0.1-0.4C5.9,22.5,5.8,22.4,5.7,22.3z"/>
	<path d="M28,7c0.3,0,0.5-0.1,0.7-0.3C28.9,6.5,29,6.3,29,6s-0.1-0.5-0.3-0.7c-0.1-0.1-0.2-0.2-0.3-0.2c-0.2-0.1-0.5-0.1-0.8,0
		c-0.1,0-0.2,0.1-0.3,0.2C27.1,5.5,27,5.7,27,6c0,0.3,0.1,0.5,0.3,0.7C27.5,6.9,27.7,7,28,7z"/>
</g>

<g transform="translate(140,129)">
<path d="M26.9,5.1c-1.6-1.6-3.7-2.5-6-2.5c-2.2,0-4.2,0.8-5.8,2.3l-13,6.5c-0.5,0.2-0.7,0.8-0.4,1.3c0.2,0.4,0.5,0.6,0.9,0.6
	c0.1,0,0.3,0,0.4-0.1l10-5c-0.3,0.9-0.5,1.8-0.5,2.8c0,1.9,0.6,3.7,1.8,5.2l-7.1,7.1c-0.4,0.4-0.4,1,0,1.4C7.5,24.9,7.7,25,8,25
	s0.5-0.1,0.7-0.3l7-7c1.5,1.2,3.3,1.8,5.2,1.8c1,0,1.9-0.2,2.8-0.5l-5,10c-0.2,0.5,0,1.1,0.4,1.3c0.1,0.1,0.3,0.1,0.4,0.1
	c0.4,0,0.7-0.2,0.9-0.6l6.5-13C30.2,13.6,30.2,8.3,26.9,5.1z"/>
</g>
<g transform="translate(250, 17)">
	<path d="M16.3,15.7c0.2,0.2,0.5,0.3,0.7,0.3s0.5-0.1,0.7-0.3l11-11c0.4-0.4,0.4-1,0-1.4s-1-0.4-1.4,0l-11,11
		C15.9,14.7,15.9,15.3,16.3,15.7z"/>
	<path d="M6,21c0,2.8,2.2,5,5,5s5-2.2,5-5s-2.2-5-5-5S6,18.2,6,21z"/>
	<path d="M29.7,14.3c-0.4-0.4-1-0.4-1.4,0L16,25.9c-2.7,2.7-7.2,2.7-9.9,0c-2.7-2.7-2.7-7.2,0-9.9L18.7,4.7c0.4-0.4,0.4-1,0.1-1.4
		c-0.4-0.4-1-0.4-1.4-0.1L4.6,14.6c-3.5,3.5-3.5,9.2,0,12.7C6.4,29.1,8.7,30,11,30c2.3,0,4.6-0.9,6.3-2.6l12.3-11.7
		C30.1,15.3,30.1,14.7,29.7,14.3z"/>
</g>
<g transform="translate(320, 94)">
	<path d="M29.8,7.2c-1.1-1.8-4-2-8.2-0.6C20,5.6,18.1,5,16,5C9.9,5,5,9.9,5,16c0,0.4,0,0.8,0.1,1.2c-2.8,3.1-3.8,5.7-2.7,7.4
		c0.7,1.1,1.9,1.5,3.5,1.5c3.5,0,8.8-2.2,13.4-5.2c3.5-2.2,6.6-4.8,8.5-7.3C30.7,10.3,30.5,8.3,29.8,7.2z M4.1,23.6
		c-0.4-0.6,0-2,1.6-3.9c0.6,1.6,1.5,3,2.7,4.2C6.1,24.4,4.5,24.3,4.1,23.6z M26.4,12.4c-0.6-1.7-1.5-3.2-2.8-4.4
		c2.6-0.6,4.1-0.4,4.5,0.2C28.5,8.8,28.2,10.2,26.4,12.4z"/>
	<path d="M11.8,26.2c1.3,0.5,2.7,0.8,4.2,0.8c5.8,0,10.5-4.5,11-10.2c-1.9,1.8-4.2,3.6-6.6,5.2C17.4,23.8,14.5,25.3,11.8,26.2z"/>
</g>
<g transform="translate(240, 180)">
	<path d="M24.8,10.3c0.1-0.3,0.2-0.7,0.3-1c0,0,0,0,0,0c0.8-2.6,0.6-4.7-0.7-6c-2.3-2.3-7.3-1.1-12.6,3l-0.7-0.7
		c-0.2,1.3-0.8,2.6-1.9,3.7c-1,1-2.2,1.7-3.4,1.9c-0.1,0-0.2,0-0.3,0l0.7,0.7c-4.1,5.2-5.3,10.2-3,12.6c0.8,0.8,1.9,1.2,3.2,1.2
		c3.3,0,8-2.5,12.4-6.8C21.6,16.1,23.7,13,24.8,10.3z M14.4,20.1c-1.3,1-2.5,1.7-3.6,2.3l1.7-4.3L14.4,20.1z M18.1,12.4l4.3-1.7
		c-0.6,1.2-1.4,2.5-2.4,3.7L18.1,12.4z M23.1,4.7c0.6,0.6,0.7,1.9,0.3,3.4l-6.9,2.8l-0.2-0.2l2.4-6.1C20.8,3.9,22.3,4,23.1,4.7z
		 M16.1,5.8l-1.3,3.3l-1.4-1.4C14.3,7,15.2,6.4,16.1,5.8z M9.1,14.7L5.9,16c0.5-0.8,1.1-1.7,1.8-2.6L9.1,14.7z M4.7,23.1
		c-0.7-0.7-0.8-2.3,0-4.4l5.9-2.4l0.3,0.3l-2.7,6.8C6.6,23.8,5.3,23.7,4.7,23.1z"/>
	<path d="M4.8,9.4c0.2,0,0.4,0,0.7-0.1c0.9-0.2,1.7-0.7,2.4-1.4C9.5,6.3,9.8,4.2,8.6,3h0C8,2.4,7.1,2.1,6.1,2.3
		C5.3,2.5,4.4,3,3.7,3.7C2.1,5.3,1.8,7.4,3,8.6C3.5,9.1,4.1,9.4,4.8,9.4z"/>
	<path d="M28,22.4l-4.5-4.5c-0.8,1-1.7,2-2.7,3c-1,1-2,1.9-3,2.7l4.5,4.5c0.5,0.5,1.1,0.7,1.9,0.7c0.2,0,0.4,0,0.7-0.1
		c0.9-0.2,1.7-0.7,2.4-1.4C28.9,25.7,29.2,23.6,28,22.4z"/>
</g>
<g transform="translate(440,50)">
	<path d="M20.8,19.8c-2.4,2.4-2.4,6.4,0,8.9c0.2,0.2,0.4,0.3,0.7,0.3s0.5-0.1,0.7-0.3l3-3l2,2c0.2,0.2,0.5,0.3,0.7,0.3
		s0.5-0.1,0.7-0.3c0.4-0.4,0.4-1,0-1.4l-2-2l3-3c0.4-0.4,0.4-1,0-1.4C27.3,17.4,23.3,17.4,20.8,19.8z"/>
	<path d="M21.7,15.3l-2.8-2.8l1.6-1.6l2.8,2.8c0.2,0.2,0.5,0.3,0.7,0.3s0.5-0.1,0.7-0.3l1.8-1.8l-8.4-8.4l-1.8,1.8
		c-0.4,0.4-0.4,1,0,1.4l2.8,2.8l-1.6,1.6L9.7,3.3c-0.4-0.4-1-0.4-1.4,0l-4,4c-0.4,0.4-0.4,1,0,1.4l7.8,7.8l-1.6,1.6l-2.8-2.8
		c-0.4-0.4-1-0.4-1.4,0l-1.8,1.8l8.4,8.4l1.8-1.8c0.4-0.4,0.4-1,0-1.4l-2.8-2.8l1.6-1.6l2.8,2.8c0.2,0.2,0.5,0.3,0.7,0.3
		s0.5-0.1,0.7-0.3l4-4C22.1,16.3,22.1,15.7,21.7,15.3z"/>
	<path d="M1.3,20.3c-0.4,0.4-0.4,1,0,1.4l7,7C8.5,28.9,8.7,29,9,29s0.5-0.1,0.7-0.3l1.8-1.8l-8.4-8.4L1.3,20.3z"/>
	<path d="M29.7,8.7c0.4-0.4,0.4-1,0-1.4l-7-7c-0.4-0.4-1-0.4-1.4,0l-1.8,1.8l8.4,8.4L29.7,8.7z"/>
</g>
</svg>
